<?xml version="1.0" encoding="UTF-8"?>
<svg width="250px" height="121px" viewBox="0 0 250 121" version="1.1" xmlns="http://www.w3.org/2000/svg" xmlns:xlink="http://www.w3.org/1999/xlink">
    <title>画板</title>
    <g id="画板" stroke="none" stroke-width="1" fill="none" fill-rule="evenodd">
        <path d="M232.480577,17.5 L232.480577,103.5 L17.5194225,103.5 L17.5194225,17.5 L232.480577,17.5 Z M195.961911,40.2131901 C183.41243,40.2131901 173.239179,49.5164845 173.239179,60.9948008 C173.239179,72.4723914 183.41243,81.7764104 195.961911,81.7764104 C208.511391,81.7764104 218.684643,72.4723914 218.684643,60.9948008 C218.68678,49.5164845 208.511391,40.2131901 195.961911,40.2131901 Z M97.3882783,39.2235896 C83.0067827,39.2235896 73.5820162,49.0462907 73.5820162,62.2409638 C73.5820162,73.6030434 82.0293995,80.7868099 94.665568,80.7868099 C100.390241,80.7868099 106.045101,79.5406463 111.281082,75.8021556 L111.281082,75.8021556 L104.718652,65.7595433 L104.397226,66.0023307 C102.020621,67.7402685 99.224666,68.5450854 96.6203344,68.5450854 C92.9202408,68.5450854 90.5465959,67.5921368 89.4993997,65.1731134 L89.4993997,65.1731134 L116.517064,59.8952441 L116.558393,59.3240614 C116.612009,58.5640482 116.65669,57.8134179 116.65669,57.109702 C116.65669,45.3078 108.209307,39.2235896 97.3882783,39.2235896 Z M166.697374,41.2027906 L153.035662,41.2027906 L153.035662,57.4938777 L123.198495,41.2027906 L123.198495,80.7868099 L136.860207,80.7868099 L136.860207,64.4957228 L166.697374,80.7868099 L166.697374,41.2027906 Z M69.1889512,41.2027906 L35.1037852,41.2027906 L35.1037852,53.6363751 L46.9015648,53.6363751 L31.3153572,80.7868099 L69.1889512,80.7868099 L69.1889512,68.3525309 L53.6027436,68.3525299 L69.1889512,41.2027906 Z M195.961911,54.0724302 C200.141508,54.0724302 203.53093,57.1718364 203.53093,60.9947997 C203.53093,64.8170383 200.141508,67.9164446 195.961911,67.9164446 C191.781601,67.9164446 188.392179,64.8170383 188.392179,60.9947997 C188.392179,57.1718364 191.781601,54.0724302 195.961911,54.0724302 Z M96.5505213,50.5123655 C99.4128578,50.5123655 101.577063,51.9784403 102.065755,54.6173749 L102.065755,54.6173749 L89.3597735,57.109702 L89.4236087,56.8561913 C90.3667263,53.2427405 92.5251622,50.5123655 96.5505213,50.5123655 Z" id="形状结合" fill="#0A1219"></path>
    </g>
</svg>